<svg fill="none" height="1037" viewBox="0 0 1148 1037" width="1148" xmlns="http://www.w3.org/2000/svg">
    <path d="M80.2327 570.02C84.4575 543.794 78.5528 516.873 64.1483 494.262C11.8192 412.122 -11.6677 308.694 5.61277 201.421C41.6997 -22.5996 241.909 -178.559 452.794 -146.924C533.697 -134.788 604.419 -96.8047 658.825 -41.9434C735.487 35.3588 867.723 88.404 978.345 95.6629C988.49 96.3285 998.677 97.4205 1008.89 98.9525C1219.77 130.587 1361.47 337.836 1325.39 561.857C1289.3 785.877 1089.09 941.836 878.206 910.201C810.337 900.02 736.287 916.247 682.375 957.315C601.998 1018.54 500.661 1048.51 396.731 1032.92C185.847 1001.29 44.1458 794.04 80.2327 570.02Z"
          fill="url(#paint0_linear)"
          opacity="0.1"/>
    <defs>
        <linearGradient gradientUnits="userSpaceOnUse" id="paint0_linear" x1="743.617" x2="569.29" y1="-103.298"
                        y2="1058.81">
            <stop stop-color="#29712A"/>
            <stop offset="1" stop-color="#29712A" stop-opacity="0"/>
        </linearGradient>
    </defs>
</svg>
